<svg width="500" height="500" viewBox="0 0 500 500" fill="none" xmlns="http://www.w3.org/2000/svg">
<rect width="500" height="500" fill="#606060"/>
<rect id="layer-0" x="450" y="450" width="50" height="50" fill="white"/>
<rect id="layer-1" x="400" y="450" width="50" height="50" fill="white"/>
<rect id="layer-0" x="350" y="450" width="50" height="50" fill="white"/>
<rect id="layer-0" x="300" y="450" width="50" height="50" fill="white"/>
<rect id="layer-0" x="250" y="450" width="50" height="50" fill="white"/>
<rect id="layer-1" x="200" y="450" width="50" height="50" fill="white"/>
<rect id="layer-0" x="150" y="450" width="50" height="50" fill="white"/>
<rect id="layer-0" x="100" y="450" width="50" height="50" fill="white"/>
<rect id="layer-1" x="50" y="450" width="50" height="50" fill="white"/>
<rect id="layer-0" y="450" width="50" height="50" fill="white"/>
<rect id="layer-0" x="450" y="400" width="50" height="50" fill="white"/>
<rect id="layer-0" x="400" y="400" width="50" height="50" fill="white"/>
<rect id="layer-1" x="350" y="400" width="50" height="50" fill="white"/>
<rect id="layer-1" x="300" y="400" width="50" height="50" fill="white"/>
<rect id="layer-0" x="250" y="400" width="50" height="50" fill="white"/>
<rect id="layer-1" x="200" y="400" width="50" height="50" fill="white"/>
<rect id="layer-0" x="150" y="400" width="50" height="50" fill="white"/>
<rect id="layer-1" x="100" y="400" width="50" height="50" fill="white"/>
<rect id="layer-0" x="50" y="400" width="50" height="50" fill="white"/>
<rect id="layer-0" y="400" width="50" height="50" fill="white"/>
<rect id="layer-1" x="450" y="350" width="50" height="50" fill="white"/>
<rect id="layer-0" x="400" y="350" width="50" height="50" fill="white"/>
<rect id="layer-1" x="350" y="350" width="50" height="50" fill="white"/>
<rect id="layer-0" x="300" y="350" width="50" height="50" fill="white"/>
<rect id="layer-1" x="250" y="350" width="50" height="50" fill="white"/>
<rect id="layer-0" x="200" y="350" width="50" height="50" fill="white"/>
<rect id="layer-1" x="150" y="350" width="50" height="50" fill="white"/>
<rect id="layer-1" x="100" y="350" width="50" height="50" fill="white"/>
<rect id="layer-0" x="50" y="350" width="50" height="50" fill="white"/>
<rect id="layer-0" y="350" width="50" height="50" fill="white"/>
<rect id="layer-1" x="450" y="300" width="50" height="50" fill="white"/>
<rect id="layer-0" x="400" y="300" width="50" height="50" fill="white"/>
<rect id="layer-1" x="350" y="300" width="50" height="50" fill="white"/>
<rect id="layer-0" x="300" y="300" width="50" height="50" fill="white"/>
<rect id="layer-1" x="250" y="300" width="50" height="50" fill="white"/>
<rect id="layer-0" x="200" y="300" width="50" height="50" fill="white"/>
<rect id="layer-1" x="150" y="300" width="50" height="50" fill="white"/>
<rect id="layer-0" x="100" y="300" width="50" height="50" fill="white"/>
<rect id="layer-1" x="50" y="300" width="50" height="50" fill="white"/>
<rect id="layer-0" y="300" width="50" height="50" fill="white"/>
<rect id="layer-1" x="400" y="250" width="50" height="50" fill="white"/>
<rect id="layer-0" x="350" y="250" width="50" height="50" fill="white"/>
<rect id="layer-0" x="300" y="250" width="50" height="50" fill="white"/>
<rect id="layer-0" x="250" y="250" width="50" height="50" fill="white"/>
<rect id="layer-1" x="450" y="250" width="50" height="50" fill="white"/>
<rect id="layer-1" x="200" y="250" width="50" height="50" fill="white"/>
<rect id="layer-1" x="150" y="250" width="50" height="50" fill="white"/>
<rect id="layer-0" x="100" y="250" width="50" height="50" fill="white"/>
<rect id="layer-0" x="50" y="250" width="50" height="50" fill="white"/>
<rect id="layer-0" y="250" width="50" height="50" fill="white"/>
<rect id="layer-1" x="450" y="200" width="50" height="50" fill="white"/>
<rect id="layer-0" x="400" y="200" width="50" height="50" fill="white"/>
<rect id="layer-0" x="350" y="200" width="50" height="50" fill="white"/>
<rect id="layer-1" x="300" y="200" width="50" height="50" fill="white"/>
<rect id="layer-0" x="250" y="200" width="50" height="50" fill="white"/>
<rect id="layer-1" x="200" y="200" width="50" height="50" fill="white"/>
<rect id="layer-0" x="150" y="200" width="50" height="50" fill="white"/>
<rect id="layer-0" x="100" y="200" width="50" height="50" fill="white"/>
<rect id="layer-1" x="50" y="200" width="50" height="50" fill="white"/>
<rect id="layer-1" y="200" width="50" height="50" fill="white"/>
<rect id="layer-0" x="450" y="150" width="50" height="50" fill="white"/>
<rect id="layer-0" x="400" y="150" width="50" height="50" fill="white"/>
<rect id="layer-0" x="350" y="150" width="50" height="50" fill="white"/>
<rect id="layer-1" x="300" y="150" width="50" height="50" fill="white"/>
<rect id="layer-0" x="250" y="150" width="50" height="50" fill="white"/>
<rect id="layer-0" x="200" y="150" width="50" height="50" fill="white"/>
<rect id="layer-1" x="150" y="150" width="50" height="50" fill="white"/>
<rect id="layer-0" x="100" y="150" width="50" height="50" fill="white"/>
<rect id="layer-1" x="50" y="150" width="50" height="50" fill="white"/>
<rect id="layer-0" y="150" width="50" height="50" fill="white"/>
<rect id="layer-1" x="450" y="100" width="50" height="50" fill="white"/>
<rect id="layer-1" x="400" y="100" width="50" height="50" fill="white"/>
<rect id="layer-0" x="350" y="100" width="50" height="50" fill="white"/>
<rect id="layer-0" x="300" y="100" width="50" height="50" fill="white"/>
<rect id="layer-1" x="250" y="100" width="50" height="50" fill="white"/>
<rect id="layer-0" x="200" y="100" width="50" height="50" fill="white"/>
<rect id="layer-0" x="150" y="100" width="50" height="50" fill="white"/>
<rect id="layer-0" x="100" y="100" width="50" height="50" fill="white"/>
<rect id="layer-1" x="50" y="100" width="50" height="50" fill="white"/>
<rect id="layer-0" y="100" width="50" height="50" fill="white"/>
<rect id="layer-0" x="450" y="50" width="50" height="50" fill="white"/>
<rect id="layer-1" x="400" y="50" width="50" height="50" fill="white"/>
<rect id="layer-0" x="350" y="50" width="50" height="50" fill="white"/>
<rect id="layer-1" x="300" y="50" width="50" height="50" fill="white"/>
<rect id="layer-0" x="250" y="50" width="50" height="50" fill="white"/>
<rect id="layer-0" x="200" y="50" width="50" height="50" fill="white"/>
<rect id="layer-1" x="150" y="50" width="50" height="50" fill="white"/>
<rect id="layer-0" x="100" y="50" width="50" height="50" fill="white"/>
<rect id="layer-0" x="50" y="50" width="50" height="50" fill="white"/>
<rect id="layer-1" y="50" width="50" height="50" fill="white"/>
<rect id="layer-0" x="450" width="50" height="50" fill="white"/>
<rect id="layer-0" x="400" width="50" height="50" fill="white"/>
<rect id="layer-1" x="350" width="50" height="50" fill="white"/>
<rect id="layer-1" x="300" width="50" height="50" fill="white"/>
<rect id="layer-0" x="250" width="50" height="50" fill="white"/>
<rect id="layer-0" x="200" width="50" height="50" fill="white"/>
<rect id="layer-1" x="150" width="50" height="50" fill="white"/>
<rect id="layer-0" x="100" width="50" height="50" fill="white"/>
<rect id="layer-0" x="50" width="50" height="50" fill="white"/>
<rect id="layer-1" width="50" height="50" fill="white"/>
</svg>
